<svg width="32px" height="32px" viewBox="0 0 32 32" version="1.1" xmlns="http://www.w3.org/2000/svg" xmlns:xlink="http://www.w3.org/1999/xlink">
    <g stroke="none" stroke-width="1" fill="none" fill-rule="evenodd">
        <g transform="translate(0.000000, -4.000000)" fill="#003781">
            <path d="M32,20.0020979 C32,10.8522325 25.1555358,4 16.0016137,4 C6.84285052,4 -4.79616347e-14,10.8522325 -4.79616347e-14,20.0020979 C-4.79616347e-14,29.1632593 6.84285052,36 16.0016137,36 C25.1555358,36 32,29.1632593 32,20.0020979 L32,20.0020979 Z M29.2816427,20.0020979 C29.2816427,27.7835177 23.6877584,33.4406197 16.0016137,33.4406197 C8.31450068,33.4406197 2.71964822,27.7835177 2.71964822,20.0020979 C2.71964822,12.2187415 8.31450068,6.5619623 16.0016137,6.5619623 C23.6877584,6.5619623 29.2816427,12.2542436 29.2816427,20.0020979 L29.2816427,20.0020979 Z M11.6573411,28.9776801 L11.6573411,13.346418 L8.93801561,13.346418 C7.59287573,13.346418 7.06521169,13.8440932 7.06521169,15.2248031 L7.06521169,28.9776801 L11.6573411,28.9776801 L11.6573411,28.9776801 Z M20.3491135,28.9776801 L24.9396293,28.9776801 L24.9396293,15.2248031 C24.9396293,13.8440932 24.4068015,13.346418 23.0613389,13.346418 L20.3491135,13.346418 L20.3491135,28.9776801 L20.3491135,28.9776801 Z M18.3104262,28.9776801 L18.3104262,11.3186013 C18.3104262,9.91174898 17.8111624,9.43827976 16.4437542,9.43827976 L12.3111927,9.43827976 L12.3111927,11.4099386 L12.5580814,11.4099386 C13.5020675,11.4099386 13.6847328,11.6223058 13.6847328,12.7583738 L13.6847328,28.9776801 L18.3104262,28.9776801 L18.3104262,28.9776801 Z"></path>
        </g>
    </g>
</svg>