<svg width="14" height="14" viewBox="0 0 14 14" fill="none" xmlns="http://www.w3.org/2000/svg">
<path d="M13.8768 2.78125L9.63086 6.99981L13.8768 11.2184C13.9535 11.058 14.0001 10.8806 14.0001 10.6912V3.30841C14.0001 3.119 13.9535 2.94168 13.8768 2.78125Z" fill="black"/>
<path d="M12.7696 2.07812H1.23053C1.04112 2.07812 0.863795 2.12469 0.703369 2.20145L6.13009 7.60082C6.60992 8.08065 7.3902 8.08065 7.87003 7.60082L13.2967 2.20145C13.1363 2.12469 12.959 2.07812 12.7696 2.07812Z" fill="black"/>
<path d="M0.12332 2.78125C0.0465664 2.94168 0 3.119 0 3.30841V10.6912C0 10.8806 0.0465664 11.058 0.12332 11.2184L4.36923 6.99981L0.12332 2.78125Z" fill="black"/>
<path d="M9.05084 7.58008L8.45001 8.1809C7.65051 8.98041 6.34958 8.98041 5.55007 8.1809L4.94928 7.58008L0.703369 11.7986C0.863795 11.8754 1.04112 11.922 1.23053 11.922H12.7696C12.959 11.922 13.1363 11.8754 13.2967 11.7986L9.05084 7.58008Z" fill="black"/>
</svg>
