<svg width="16" height="16" viewBox="0 0 16 16" fill="none" xmlns="http://www.w3.org/2000/svg">
<path d="M6.46395 8.83197C6.41595 8.83197 5.35995 8.83197 4.87995 8.83197C4.62395 8.83197 4.54395 8.73597 4.54395 8.49597C4.54395 7.85597 4.54395 7.19997 4.54395 6.55997C4.54395 6.30397 4.63995 6.22397 4.87995 6.22397H6.46395C6.46395 6.17597 6.46395 5.24797 6.46395 4.81597C6.46395 4.17597 6.57595 3.56797 6.89595 3.00797C7.23195 2.43197 7.71195 2.04797 8.31995 1.82397C8.71995 1.67997 9.11995 1.61597 9.55195 1.61597H11.1199C11.3439 1.61597 11.4399 1.71197 11.4399 1.93597V3.75997C11.4399 3.98397 11.3439 4.07997 11.1199 4.07997C10.6879 4.07997 10.2559 4.07997 9.82395 4.09597C9.39195 4.09597 9.16795 4.30397 9.16795 4.75197C9.15195 5.23197 9.16795 5.69597 9.16795 6.19197H11.0239C11.2799 6.19197 11.3759 6.28797 11.3759 6.54397V8.47997C11.3759 8.73597 11.2959 8.81597 11.0239 8.81597C10.4479 8.81597 9.21595 8.81597 9.16795 8.81597V14.032C9.16795 14.304 9.08795 14.4 8.79995 14.4C8.12795 14.4 7.47195 14.4 6.79995 14.4C6.55995 14.4 6.46395 14.304 6.46395 14.064C6.46395 12.384 6.46395 8.87997 6.46395 8.83197Z" fill="white"/>
</svg>
