<svg width="14" height="20" viewBox="0 0 14 20" fill="none" xmlns="http://www.w3.org/2000/svg">
<g clip-path="url(#clip0_8_908)">
<path d="M6.66675 9.99999C6.66675 9.11593 7.01794 8.26809 7.64306 7.64297C8.26818 7.01785 9.11603 6.66666 10.0001 6.66666C10.8841 6.66666 11.732 7.01785 12.3571 7.64297C12.9822 8.26809 13.3334 9.11593 13.3334 9.99999C13.3334 10.884 12.9822 11.7319 12.3571 12.357C11.732 12.9821 10.8841 13.3333 10.0001 13.3333C9.11603 13.3333 8.26818 12.9821 7.64306 12.357C7.01794 11.7319 6.66675 10.884 6.66675 9.99999Z" fill="#4B4B4B"/>
<path d="M0 16.6667C0 15.7826 0.351189 14.9348 0.976311 14.3097C1.60143 13.6845 2.44928 13.3333 3.33333 13.3333H6.66667V16.6667C6.66667 17.5507 6.31548 18.3986 5.69036 19.0237C5.06523 19.6488 4.21739 20 3.33333 20C2.44928 20 1.60143 19.6488 0.976311 19.0237C0.351189 18.3986 0 17.5507 0 16.6667H0Z" fill="#4B4B4B"/>
<path d="M6.66675 0V6.66667H10.0001C10.8841 6.66667 11.732 6.31548 12.3571 5.69036C12.9822 5.06523 13.3334 4.21739 13.3334 3.33333C13.3334 2.44928 12.9822 1.60143 12.3571 0.976311C11.732 0.351189 10.8841 0 10.0001 0L6.66675 0Z" fill="#4B4B4B"/>
<path d="M0 3.33333C0 4.21739 0.351189 5.06523 0.976311 5.69036C1.60143 6.31548 2.44928 6.66667 3.33333 6.66667H6.66667V0H3.33333C2.44928 0 1.60143 0.351189 0.976311 0.976311C0.351189 1.60143 0 2.44928 0 3.33333H0Z" fill="#4B4B4B"/>
<path d="M0 9.99999C0 10.884 0.351189 11.7319 0.976311 12.357C1.60143 12.9821 2.44928 13.3333 3.33333 13.3333H6.66667V6.66666H3.33333C2.44928 6.66666 1.60143 7.01785 0.976311 7.64297C0.351189 8.26809 0 9.11593 0 9.99999H0Z" fill="#4B4B4B"/>
</g>
<defs>
<clipPath id="clip0_8_908">
<rect width="13.3333" height="20" fill="white"/>
</clipPath>
</defs>
</svg>
