<svg width="16" height="16" viewBox="0 0 16 16" fill="none" xmlns="http://www.w3.org/2000/svg">
<path d="M5.58946 14.8421C6.07367 14.8421 6.21051 14.6526 6.21051 14.4105C6.21051 14.1684 6.21051 13.6421 6.19998 12.8947C3.68419 13.4316 3.14735 11.6947 3.14735 11.6947C2.73683 10.6737 2.13683 10.3895 2.13683 10.3895C1.31577 9.8421 2.19998 9.85263 2.19998 9.85263C3.10525 9.91579 3.58946 10.7684 3.58946 10.7684C4.39998 12.1368 5.70524 11.7368 6.22103 11.5053C6.26314 11.0526 6.46314 10.6211 6.79998 10.3053C4.78946 10.0842 2.67367 9.31579 2.67367 5.90526C2.66314 5.02105 2.99998 4.15789 3.61051 3.51579C3.50525 3.29473 3.19998 2.38947 3.68419 1.15789C3.68419 1.15789 4.44209 0.915786 6.17893 2.07368C7.66314 1.67368 9.22103 1.67368 10.7052 2.07368C12.421 0.926313 13.1895 1.15789 13.1895 1.15789C13.6737 2.37894 13.3684 3.28421 13.2842 3.51579C13.8947 4.15789 14.221 5.02105 14.2105 5.90526C14.2105 9.32631 12.0947 10.0737 10.0737 10.2947C10.3895 10.5579 10.6842 11.1053 10.6842 11.9368C10.6842 13.1368 10.6737 14.0842 10.6737 14.3684C10.6737 14.6 10.7789 14.7895 11.2947 14.7895L5.58946 14.8421Z" fill="white"/>
</svg>
