<svg width="16" height="16" viewBox="0 0 16 16" fill="none" xmlns="http://www.w3.org/2000/svg">
<path d="M14.4002 14.3999V9.71195C14.4002 7.40795 13.9042 5.64795 11.2162 5.64795C9.92017 5.64795 9.05617 6.35195 8.70417 7.02395H8.67217V5.85595H6.12817V14.3999H8.78417V10.1599C8.78417 9.03995 8.99217 7.96795 10.3682 7.96795C11.7282 7.96795 11.7442 9.23195 11.7442 10.2239V14.3839H14.4002V14.3999Z" fill="black"/>
<path d="M1.80811 5.85596H4.46411V14.4H1.80811V5.85596Z" fill="black"/>
<path d="M3.1361 1.6001C2.2881 1.6001 1.6001 2.2881 1.6001 3.1361C1.6001 3.9841 2.2881 4.6881 3.1361 4.6881C3.9841 4.6881 4.67211 3.9841 4.67211 3.1361C4.67211 2.2881 3.9841 1.6001 3.1361 1.6001Z" fill="black"/>
</svg>
