<svg width="16" height="16" viewBox="0 0 16 16" fill="none" xmlns="http://www.w3.org/2000/svg">
<path fill-rule="evenodd" clip-rule="evenodd" d="M3.43427 3.43427C3.74669 3.12185 4.25322 3.12185 4.56564 3.43427L12.5656 11.4343C12.8781 11.7467 12.8781 12.2532 12.5656 12.5656C12.2532 12.8781 11.7467 12.8781 11.4343 12.5656L3.43427 4.56564C3.12185 4.25322 3.12185 3.74669 3.43427 3.43427Z" fill="#C0EF3A"/>
<path fill-rule="evenodd" clip-rule="evenodd" d="M11.9999 4.69995C12.4418 4.69995 12.7999 5.05812 12.7999 5.49995L12.8 11.9999C12.8 12.4418 12.4418 12.7999 12 12.7999L5.49995 12.7999C5.05812 12.7999 4.69995 12.4418 4.69995 11.9999C4.69995 11.5581 5.05812 11.1999 5.49995 11.1999L11.2 11.1999L11.1999 5.49995C11.1999 5.05812 11.5581 4.69995 11.9999 4.69995Z" fill="#C0EF3A"/>
</svg>
