<svg width="14" height="14" viewBox="0 0 14 14" fill="none" xmlns="http://www.w3.org/2000/svg">
<path d="M13.4002 13.4002V8.71219C13.4002 6.40819 12.9042 4.64819 10.2162 4.64819C8.92017 4.64819 8.05617 5.35219 7.70417 6.02419H7.67217V4.85619H5.12817V13.4002H7.78417V9.16019C7.78417 8.04019 7.99217 6.96819 9.36817 6.96819C10.7282 6.96819 10.7442 8.23219 10.7442 9.22419V13.3842H13.4002V13.4002Z" fill="white"/>
<path d="M0.808105 4.8562H3.46411V13.4002H0.808105V4.8562Z" fill="white"/>
<path d="M2.1361 0.600098C1.2881 0.600098 0.600098 1.2881 0.600098 2.1361C0.600098 2.9841 1.2881 3.6881 2.1361 3.6881C2.9841 3.6881 3.67211 2.9841 3.67211 2.1361C3.67211 1.2881 2.9841 0.600098 2.1361 0.600098Z" fill="white"/>
</svg>
