<svg width="16" height="16" viewBox="0 0 16 16" fill="none" xmlns="http://www.w3.org/2000/svg">
<path d="M15.3334 7.99955C15.3334 7.00668 15.1407 6.05699 14.7553 5.15075C14.37 4.24451 13.8491 3.46338 13.1929 2.80699C12.5366 2.1506 11.7553 1.62989 10.8491 1.24454C9.94286 0.859184 8.9932 0.666403 8.00012 0.666403C7.49309 0.666403 6.97223 0.72222 6.43767 0.833287C5.71524 0.277921 4.90275 0 4.00015 0C2.896 0 1.95329 0.390658 1.17197 1.17179C0.390657 1.95293 0 2.89547 0 3.99979C0 4.90275 0.277564 5.71524 0.833287 6.43713C0.722041 6.97223 0.666582 7.49312 0.666582 7.99958C0.666582 8.99281 0.859363 9.94247 1.24475 10.8487C1.6301 11.7549 2.15099 12.5361 2.8072 13.1925C3.46341 13.8488 4.24472 14.3695 5.15096 14.7549C6.0572 15.1403 7.00686 15.3331 7.99991 15.3331C8.50676 15.3331 9.02762 15.2772 9.56236 15.1662C10.2846 15.7215 11.0971 15.9995 11.9999 15.9995C13.1041 15.9995 14.0467 15.6088 14.8281 14.8277C15.6094 14.0464 16 13.1036 16 11.9997C16 11.0967 15.7223 10.2846 15.1667 9.562C15.2778 9.0278 15.3334 8.50694 15.3334 7.99955ZM11.8751 11.1091C11.6459 11.5153 11.3386 11.8403 10.9532 12.0832C10.5678 12.3262 10.1423 12.5122 9.67706 12.6402C9.21167 12.7688 8.72559 12.8332 8.21874 12.8332C7.04513 12.8332 6.03458 12.6058 5.18741 12.1507C4.34009 11.6959 3.91659 11.1489 3.91659 10.51C3.91659 10.1976 4.00504 9.93716 4.18232 9.72871C4.3594 9.52043 4.62131 9.41631 4.96873 9.41631C5.17009 9.41631 5.35757 9.47212 5.53119 9.58319C5.70463 9.69429 5.8646 9.82777 6.01033 9.98407C6.15623 10.1403 6.31396 10.2967 6.48434 10.4528C6.6545 10.6091 6.88009 10.7429 7.16153 10.854C7.44276 10.9651 7.76046 11.0205 8.11464 11.0205C8.56586 11.0205 8.93062 10.9323 9.20836 10.7552C9.48592 10.5777 9.62509 10.354 9.62509 10.0829C9.62509 9.80536 9.51388 9.59705 9.29168 9.45791C9.13883 9.36106 8.75002 9.23613 8.12504 9.08311L6.60416 8.70794C6.18743 8.61112 5.82976 8.49803 5.53122 8.36947C5.2325 8.24124 4.95473 8.07292 4.69793 7.86447C4.44096 7.65619 4.24654 7.39409 4.11467 7.07785C3.98263 6.76214 3.9168 6.39228 3.9168 5.96825C3.9168 5.46161 4.03296 5.01531 4.2657 4.62996C4.49824 4.24457 4.80736 3.94219 5.19274 3.72372C5.57813 3.50486 5.99301 3.34161 6.43749 3.23385C6.88176 3.12645 7.34009 3.07263 7.81246 3.07263C8.47908 3.07263 9.111 3.15232 9.70829 3.3119C10.3054 3.47184 10.7986 3.70619 11.1874 4.01499C11.5763 4.32429 11.7707 4.66974 11.7707 5.05182C11.7707 5.36425 11.6717 5.63162 11.4737 5.85375C11.2758 6.07589 11.0136 6.18695 10.6873 6.18695C10.5067 6.18695 10.34 6.14538 10.1874 6.06203C10.0346 5.97868 9.89577 5.87819 9.7707 5.75964C9.64574 5.64202 9.51373 5.52529 9.37491 5.41091C9.23592 5.29621 9.04845 5.19733 8.81249 5.11383C8.57629 5.03048 8.30891 4.98891 8.01034 4.98891C7.01035 4.98891 6.51044 5.25664 6.51044 5.79084C6.51044 5.90921 6.53652 6.01334 6.58852 6.10324C6.64067 6.19408 6.69795 6.26685 6.76032 6.3221C6.82287 6.37792 6.92703 6.43317 7.07272 6.4886C7.21862 6.54441 7.33991 6.5847 7.4373 6.6086C7.53451 6.63304 7.68736 6.66916 7.89561 6.71803L8.97892 6.96788C9.31907 7.04429 9.62295 7.12419 9.89047 7.20754C10.1577 7.29089 10.4442 7.4089 10.7499 7.56154C11.0554 7.71457 11.3089 7.88455 11.5104 8.07221C11.7117 8.25932 11.8801 8.49734 12.0156 8.78552C12.1511 9.07405 12.2187 9.39175 12.2187 9.73881C12.2189 10.2465 12.1042 10.703 11.8751 11.1091Z" fill="white"/>
</svg>
