<svg width="20" height="20" viewBox="0 0 20 20" fill="none" xmlns="http://www.w3.org/2000/svg">
<path fill-rule="evenodd" clip-rule="evenodd" d="M12.6993 19.9507C12.961 19.9505 13.2202 19.8987 13.4619 19.7983C13.7036 19.6979 13.9232 19.5509 14.1081 19.3656C14.293 19.1803 14.4396 18.9604 14.5395 18.7185C14.6394 18.4766 14.6907 18.2173 14.6904 17.9556C14.6906 17.6938 14.6393 17.4346 14.5394 17.1927C14.4394 16.9509 14.2928 16.731 14.108 16.5458C13.9231 16.3605 13.7035 16.2135 13.4618 16.1132C13.2201 16.0128 12.961 15.961 12.6993 15.9607H10.7082V17.9556C10.7079 18.2173 10.7591 18.4766 10.859 18.7185C10.959 18.9604 11.1055 19.1803 11.2904 19.3656C11.4753 19.5509 11.6949 19.6979 11.9366 19.7983C12.1784 19.8987 12.4375 19.9505 12.6993 19.9507ZM12.6993 14.6304H18.0089C18.2706 14.6301 18.5297 14.5783 18.7714 14.478C19.0131 14.3776 19.2327 14.2306 19.4176 14.0453C19.6025 13.8601 19.7491 13.6403 19.849 13.3984C19.9489 13.1565 20.0002 12.8973 20 12.6356C20.0003 12.3738 19.949 12.1146 19.8491 11.8726C19.7492 11.6307 19.6026 11.4108 19.4177 11.2255C19.2328 11.0403 19.0132 10.8932 18.7715 10.7928C18.5298 10.6924 18.2706 10.6406 18.0089 10.6404H12.6993C12.4375 10.6406 12.1784 10.6924 11.9366 10.7928C11.6949 10.8932 11.4753 11.0403 11.2904 11.2255C11.1055 11.4108 10.959 11.6307 10.859 11.8726C10.7591 12.1146 10.7079 12.3738 10.7082 12.6356C10.7079 12.8973 10.7592 13.1565 10.8591 13.3984C10.9591 13.6403 11.1057 13.8601 11.2906 14.0453C11.4755 14.2306 11.695 14.3776 11.9367 14.478C12.1784 14.5783 12.4375 14.6301 12.6993 14.6304Z" fill="#4B4B4B"/>
<path fill-rule="evenodd" clip-rule="evenodd" d="M0.0890055 12.6356C0.0887623 12.8973 0.14007 13.1565 0.240002 13.3984C0.339932 13.6403 0.486529 13.8601 0.671421 14.0453C0.856313 14.2306 1.07588 14.3776 1.31758 14.478C1.55929 14.5783 1.8184 14.6301 2.08012 14.6304C2.34184 14.6301 2.60095 14.5783 2.84265 14.478C3.08435 14.3776 3.30392 14.2306 3.48881 14.0453C3.6737 13.8601 3.8203 13.6403 3.92023 13.3984C4.02016 13.1565 4.07147 12.8973 4.07123 12.6356V10.6404H2.08012C1.81837 10.6406 1.55923 10.6924 1.3175 10.7928C1.07577 10.8932 0.856187 11.0403 0.671289 11.2255C0.486393 11.4108 0.339805 11.6307 0.239896 11.8726C0.139986 12.1146 0.0887136 12.3738 0.0890055 12.6356ZM5.39864 12.6356V17.9556C5.39834 18.2173 5.44962 18.4766 5.54953 18.7185C5.64943 18.9604 5.79602 19.1803 5.98092 19.3656C6.16582 19.5509 6.3854 19.6979 6.62713 19.7983C6.86886 19.8987 7.128 19.9505 7.38975 19.9507C7.6515 19.9505 7.91064 19.8987 8.15237 19.7983C8.39409 19.6979 8.61368 19.5509 8.79857 19.3656C8.98347 19.1803 9.13006 18.9604 9.22997 18.7185C9.32988 18.4766 9.38115 18.2173 9.38086 17.9556V12.6356C9.38115 12.3738 9.32988 12.1146 9.22997 11.8726C9.13006 11.6307 8.98347 11.4108 8.79857 11.2255C8.61368 11.0403 8.39409 10.8932 8.15237 10.7928C7.91064 10.6924 7.6515 10.6406 7.38975 10.6404C7.128 10.6406 6.86886 10.6924 6.62713 10.7928C6.3854 10.8932 6.16582 11.0403 5.98092 11.2255C5.79602 11.4108 5.64943 11.6307 5.54953 11.8726C5.44962 12.1146 5.39834 12.3738 5.39864 12.6356Z" fill="#4B4B4B"/>
<path fill-rule="evenodd" clip-rule="evenodd" d="M7.38975 -7.62939e-06C7.128 0.000234604 6.86886 0.0520382 6.62713 0.152441C6.3854 0.252845 6.16582 0.399883 5.98092 0.585158C5.79602 0.770433 5.64943 0.990314 5.54953 1.23225C5.44962 1.47418 5.39834 1.73343 5.39864 1.99518C5.39839 2.2569 5.4497 2.5161 5.54963 2.75799C5.64956 2.99988 5.79616 3.21972 5.98105 3.40496C6.16594 3.59019 6.38551 3.7372 6.62721 3.83758C6.86892 3.93796 7.12803 3.98975 7.38975 3.98999H9.38086V1.99518C9.38115 1.73343 9.32988 1.47418 9.22997 1.23225C9.13006 0.990314 8.98347 0.770433 8.79857 0.585158C8.61368 0.399883 8.39409 0.252845 8.15237 0.152441C7.91064 0.0520382 7.6515 0.000234604 7.38975 -7.62939e-06ZM7.38975 5.32036H2.08012C1.8184 5.32061 1.55929 5.3724 1.31758 5.47278C1.07588 5.57316 0.856313 5.72016 0.671421 5.9054C0.486529 6.09063 0.339932 6.31047 0.240002 6.55236C0.14007 6.79425 0.0887623 7.05346 0.0890055 7.31518C0.0887136 7.57693 0.139986 7.83617 0.239896 8.07811C0.339805 8.32004 0.486393 8.53992 0.671289 8.7252C0.856187 8.91047 1.07577 9.05751 1.3175 9.15791C1.55923 9.25832 1.81837 9.31012 2.08012 9.31036H7.38975C7.6515 9.31012 7.91064 9.25832 8.15237 9.15791C8.39409 9.05751 8.61368 8.91047 8.79857 8.7252C8.98347 8.53992 9.13006 8.32004 9.22997 8.07811C9.32988 7.83617 9.38115 7.57693 9.38086 7.31518C9.3811 7.05346 9.32979 6.79425 9.22986 6.55236C9.12993 6.31047 8.98333 6.09063 8.79844 5.9054C8.61355 5.72016 8.39398 5.57316 8.15228 5.47278C7.91058 5.3724 7.65147 5.32061 7.38975 5.32036Z" fill="#4B4B4B"/>
<path fill-rule="evenodd" clip-rule="evenodd" d="M20 7.31518C20.0002 7.05346 19.9489 6.79425 19.849 6.55236C19.7491 6.31047 19.6025 6.09063 19.4176 5.9054C19.2327 5.72016 19.0131 5.57316 18.7714 5.47278C18.5297 5.3724 18.2706 5.32061 18.0089 5.32036C17.7472 5.32061 17.4881 5.3724 17.2464 5.47278C17.0047 5.57316 16.7851 5.72016 16.6002 5.9054C16.4153 6.09063 16.2687 6.31047 16.1688 6.55236C16.0688 6.79425 16.0175 7.05346 16.0178 7.31518V9.31036H18.0089C18.2707 9.31012 18.5298 9.25831 18.7716 9.15788C19.0133 9.05745 19.2329 8.91038 19.4178 8.72507C19.6027 8.53975 19.7493 8.31983 19.8492 8.07785C19.9491 7.83587 20.0003 7.57659 20 7.31481V7.31518ZM14.6904 7.31518V1.99518C14.6907 1.73343 14.6394 1.47418 14.5395 1.23225C14.4396 0.990314 14.293 0.770433 14.1081 0.585158C13.9232 0.399883 13.7036 0.252845 13.4619 0.152441C13.2202 0.0520382 12.961 0.000234604 12.6993 -7.62939e-06C12.4375 0.000234604 12.1784 0.0520382 11.9366 0.152441C11.6949 0.252845 11.4753 0.399883 11.2904 0.585158C11.1055 0.770433 10.959 0.990314 10.859 1.23225C10.7591 1.47418 10.7079 1.73343 10.7082 1.99518V7.31481C10.7079 7.57656 10.7591 7.8358 10.859 8.07774C10.959 8.31967 11.1055 8.53955 11.2904 8.72483C11.4753 8.9101 11.6949 9.05714 11.9366 9.15754C12.1784 9.25795 12.4375 9.30975 12.6993 9.30999C12.961 9.30975 13.2202 9.25795 13.4619 9.15754C13.7036 9.05714 13.9232 8.9101 14.1081 8.72483C14.293 8.53955 14.4396 8.31967 14.5395 8.07774C14.6394 7.8358 14.6907 7.57656 14.6904 7.31481" fill="#4B4B4B"/>
</svg>
