<svg width="14" height="14" viewBox="0 0 14 14" fill="none" xmlns="http://www.w3.org/2000/svg">
<g clip-path="url(#clip0_10_1884)">
<path d="M5.10425 10.2734V12.9789C5.10425 13.1679 5.22558 13.3353 5.40525 13.3948C5.45016 13.4094 5.49625 13.4164 5.54175 13.4164C5.67825 13.4164 5.81008 13.3523 5.89408 13.2379L7.47667 11.0843L5.10425 10.2734Z" fill="black"/>
<path d="M13.8163 0.081135C13.6821 -0.0139483 13.506 -0.0267816 13.3601 0.049635L0.23511 6.9038C0.0799427 6.98488 -0.0116407 7.15055 0.00119261 7.32497C0.0146093 7.49997 0.130693 7.6493 0.295776 7.70588L3.94453 8.95305L11.7151 2.30888L5.70212 9.5533L11.8172 11.6434C11.8627 11.6585 11.9105 11.6667 11.9584 11.6667C12.0377 11.6667 12.1165 11.6451 12.1859 11.6031C12.2967 11.5355 12.372 11.4217 12.3912 11.294L13.9954 0.502301C14.0193 0.338968 13.9505 0.176802 13.8163 0.081135Z" fill="black"/>
</g>
<defs>
<clipPath id="clip0_10_1884">
<rect width="14" height="14" fill="white"/>
</clipPath>
</defs>
</svg>
