<svg width="21" height="20" viewBox="0 0 21 20" fill="none" xmlns="http://www.w3.org/2000/svg">
<path fill-rule="evenodd" clip-rule="evenodd" d="M9.06232 10L15.0309 5.48868V5.48706L15.031 5.48856V14.5114L15.0309 14.5129V14.5113L9.06232 10ZM3.19527 10L0.322697 12.6262C-0.128445 13.0423 -0.10288 13.7626 0.376333 14.1461C0.376333 14.1461 1.04001 14.7637 1.28012 14.9351C1.64906 15.1983 2.13378 15.2283 2.49921 14.9607L5.85055 12.4276L13.8906 19.7782C14.0951 20.0097 14.391 20.0479 14.6302 19.9485L14.63 19.9502L19.0512 17.8749C19.6477 17.6644 20.0437 17.098 20.0437 16.4613V3.53862C20.0437 2.90201 19.6477 2.33558 19.0512 2.12505L14.63 0.0497906L14.6302 0.0514568C14.391 -0.0478899 14.0951 -0.00975559 13.8906 0.22184L5.85055 7.57241L2.49921 5.03934C2.13378 4.77166 1.64906 4.80173 1.28012 5.0649C1.04001 5.23633 0.376333 5.8539 0.376333 5.8539C-0.10288 6.23737 -0.128445 6.95769 0.322697 7.37375L3.19527 10Z" fill="#4B4B4B"/>
</svg>
